<svg xmlns="http://www.w3.org/2000/svg" viewBox="0 0 1200 900" width="1200" height="900">
  <defs>
    <radialGradient id="macroYellow" cx="50%" cy="45%" r="65%">
      <stop offset="0%" stop-color="#FFD54F"/>
      <stop offset="65%" stop-color="#FFC107"/>
      <stop offset="100%" stop-color="#FFA000"/>
    </radialGradient>
    <filter id="macroShadow" x="-20%" y="-20%" width="140%" height="140%">
      <feDropShadow dx="25" dy="35" stdDeviation="30" flood-color="#4E2700" flood-opacity="0.4"/>
    </filter>
  </defs>

  <!-- Yellow Gastronomy Background -->
  <rect width="1200" height="900" fill="url(#macroYellow)"/>

  <!-- Centered Hero Cobalt Blue Plate -->
  <g transform="translate(600, 480)" filter="url(#macroShadow)">
    <circle r="360" fill="#0D47A1" stroke="#1565C0" stroke-width="18"/>
    <circle r="320" fill="#1976D2" opacity="0.95"/>
    <circle r="300" fill="#1E88E5" opacity="0.4"/>

    <!-- Square Branded Wax Paper Liner -->
    <rect x="-270" y="-270" width="540" height="540" rx="20" fill="#FFFDF9" transform="rotate(15)" opacity="0.97"/>
    <text x="-120" y="-190" font-family="'Arial Black', sans-serif" font-size="16" fill="#E65100" opacity="0.35" transform="rotate(15)">MARISCOS CHINGONCITO</text>
    <text x="-160" y="210" font-family="'Arial Black', sans-serif" font-size="16" fill="#E65100" opacity="0.35" transform="rotate(15)">CALIDAD &amp; FRESCURA GARANTIZADA</text>

    <!-- Crunchy Crispy Golden Corn Tostada -->
    <circle r="210" fill="#F4B400" stroke="#D39E00" stroke-width="8"/>
    <circle r="185" fill="#E0A300" opacity="0.3"/>

    <!-- Base Layer: Crisp Thin Cucumber Ribbons & Purple Onion -->
    <path d="M-130,-40 Q-40,-120 70,-80" stroke="#689F38" stroke-width="22" stroke-linecap="round" fill="none" opacity="0.85"/>
    <path d="M-80,60 Q20,130 110,50" stroke="#7CB342" stroke-width="24" stroke-linecap="round" fill="none" opacity="0.85"/>
    <!-- Purple Onion Slices -->
    <path d="M-120,30 Q-20,90 90,40" stroke="#8E24AA" stroke-width="9" stroke-linecap="round" fill="none"/>
    <path d="M-60,-70 Q40,-40 100,-80" stroke="#AD1457" stroke-width="8" stroke-linecap="round" fill="none"/>

    <!-- Plump Succulent Mexican Poached Shrimp (Layered Cluster) -->
    <!-- Shrimp 1 (Left) -->
    <path d="M-130,-20 C-110,-90 -30,-80 -20,-30 C-15,10 -80,20 -130,-20 Z" fill="#FF8A65" stroke="#E64A19" stroke-width="4"/>
    <path d="M-110,-30 Q-60,-60 -35,-25" stroke="#FFF" stroke-width="6" fill="none" opacity="0.6"/>

    <!-- Shrimp 2 (Center-Right) -->
    <path d="M20,-60 C60,-100 130,-50 110,10 C90,60 10,20 20,-60 Z" fill="#FF7043" stroke="#D84315" stroke-width="4"/>
    <path d="M45,-45 Q90,-50 90,0" stroke="#FFF" stroke-width="6" fill="none" opacity="0.6"/>

    <!-- Shrimp 3 (Bottom-Center) -->
    <path d="M-80,40 C-40,110 50,100 60,40 C70,-10 -30,0 -80,40 Z" fill="#FF8A65" stroke="#E64A19" stroke-width="4"/>
    <path d="M-50,60 Q0,80 40,40" stroke="#FFF" stroke-width="6" fill="none" opacity="0.6"/>

    <!-- The Avocado Crown: Perfectly Fanned Fresh Creamy Hass Avocado Slices -->
    <!-- Fan Slice 1 -->
    <path d="M-110,-10 Q-30,-70 50,-35 Q-10,-5 -110,-10 Z" fill="#558B2F" stroke="#33691E" stroke-width="3"/>
    <path d="M-90,-12 Q-25,-55 35,-32" stroke="#DCEDC8" stroke-width="12" fill="none" stroke-linecap="round"/>
    <!-- Fan Slice 2 (Center Hero) -->
    <path d="M-90,15 Q0,-55 80,-15 Q10,15 -90,15 Z" fill="#689F38" stroke="#33691E" stroke-width="3"/>
    <path d="M-70,12 Q0,-40 65,-12" stroke="#E8F5E9" stroke-width="14" fill="none" stroke-linecap="round"/>
    <!-- Fan Slice 3 -->
    <path d="M-60,40 Q20,-25 100,10 Q25,38 -60,40 Z" fill="#558B2F" stroke="#33691E" stroke-width="3"/>
    <path d="M-45,35 Q18,-15 80,10" stroke="#DCEDC8" stroke-width="12" fill="none" stroke-linecap="round"/>

    <!-- Seasoning: Tajín & Sea Salt Flakes Glistening -->
    <circle cx="-30" cy="-20" r="3" fill="#D32F2F"/>
    <circle cx="10" cy="-35" r="2.5" fill="#D32F2F"/>
    <circle cx="45" cy="-10" r="3.5" fill="#D32F2F"/>
    <circle cx="-15" cy="15" r="3" fill="#D32F2F"/>
    <circle cx="35" cy="25" r="2.5" fill="#D32F2F"/>
    <circle cx="0" cy="-10" r="2" fill="#FFF" opacity="0.9"/>
    <circle cx="-40" cy="5" r="2.5" fill="#FFF" opacity="0.9"/>
    <circle cx="20" cy="5" r="2" fill="#FFF" opacity="0.9"/>
  </g>

  <!-- Title Badge -->
  <rect x="40" y="40" width="370" height="52" rx="10" fill="#1B1B1B" opacity="0.85"/>
  <text x="60" y="73" font-family="'Hanken Grotesk', 'Arial', sans-serif" font-size="16" font-weight="bold" fill="#FFF" letter-spacing="2">MOVA • MACRO GASTRONOMÍA &amp; DETALLE</text>
</svg>