<svg xmlns="http://www.w3.org/2000/svg" viewBox="0 0 1200 900" width="1200" height="900">
  <defs>
    <radialGradient id="tableLight" cx="50%" cy="50%" r="70%">
      <stop offset="0%" stop-color="#FDD835"/>
      <stop offset="70%" stop-color="#FBC02D"/>
      <stop offset="100%" stop-color="#F57F17"/>
    </radialGradient>
    <filter id="shadow" x="-10%" y="-10%" width="130%" height="130%">
      <feDropShadow dx="15" dy="25" stdDeviation="20" flood-color="#553000" flood-opacity="0.35"/>
    </filter>
    <filter id="softGlow" x="-20%" y="-20%" width="140%" height="140%">
      <feGaussianBlur stdDeviation="5" result="blur"/>
      <feComposite in="SourceGraphic" in2="blur" operator="over"/>
    </filter>
  </defs>

  <!-- Yellow Table Background -->
  <rect width="1200" height="900" fill="url(#tableLight)"/>

  <!-- Subtle table wood grain texture -->
  <g opacity="0.06">
    <line x1="0" y1="120" x2="1200" y2="120" stroke="#000" stroke-width="2"/>
    <line x1="0" y1="280" x2="1200" y2="280" stroke="#000" stroke-width="2"/>
    <line x1="0" y1="450" x2="1200" y2="450" stroke="#000" stroke-width="2"/>
    <line x1="0" y1="620" x2="1200" y2="620" stroke="#000" stroke-width="2"/>
    <line x1="0" y1="780" x2="1200" y2="780" stroke="#000" stroke-width="2"/>
  </g>

  <!-- Top-Center Plate: Crispy Fish/Shrimp Taco -->
  <g transform="translate(600, 260)" filter="url(#shadow)">
    <!-- Blue Plate -->
    <circle r="170" fill="#0D47A1" stroke="#1565C0" stroke-width="10"/>
    <circle r="145" fill="#1976D2" opacity="0.9"/>
    <!-- Wax Paper Liner with Print -->
    <rect x="-130" y="-130" width="260" height="260" rx="15" fill="#FFFDF8" transform="rotate(12)" opacity="0.96"/>
    <text x="-40" y="-80" font-family="'Impact', 'Arial Black', sans-serif" font-size="12" fill="#E65100" opacity="0.4" transform="rotate(12)">CHINGONCITO TACOS</text>
    <text x="-60" y="80" font-family="'Impact', 'Arial Black', sans-serif" font-size="12" fill="#E65100" opacity="0.4" transform="rotate(12)">ESPECIALIDAD DEL MAR</text>
    <!-- Crispy Golden Taco -->
    <ellipse cx="0" cy="10" rx="110" ry="48" fill="#F4B400" stroke="#D39E00" stroke-width="3"/>
    <!-- Golden fried shrimp / battered fish -->
    <ellipse cx="-35" cy="5" rx="35" ry="18" fill="#E67E22"/>
    <ellipse cx="25" cy="12" rx="38" ry="20" fill="#D35400"/>
    <!-- Purple cabbage slaw -->
    <path d="M-60,-5 Q-20,-15 30,-8 Q50,-2 60,10" stroke="#8E24AA" stroke-width="7" fill="none" stroke-linecap="round"/>
    <path d="M-40,5 Q0,-8 50,2" stroke="#AB47BC" stroke-width="5" fill="none" stroke-linecap="round"/>
    <!-- Creamy white chipotle drizzle -->
    <path d="M-80,0 Q-40,25 0,-5 Q40,20 70,-10" stroke="#FFF9C4" stroke-width="9" fill="none" stroke-linecap="round" opacity="0.9"/>
    <!-- Fresh Cilantro Microgreens -->
    <circle cx="-15" cy="-8" r="7" fill="#2E7D32"/>
    <circle cx="20" cy="-2" r="6" fill="#388E3C"/>
    <circle cx="45" cy="18" r="5" fill="#2E7D32"/>
    <!-- Fresh lime wedge on side -->
    <path d="M75,60 A35,35 0 0,0 120,40 Z" fill="#7CB342" stroke="#558B2F" stroke-width="2"/>
    <path d="M78,58 A30,30 0 0,0 115,42 Z" fill="#C0CA33"/>
  </g>

  <!-- Left Plate: Taco Dorado / Salsa Roja -->
  <g transform="translate(320, 600)" filter="url(#shadow)">
    <!-- Blue Plate -->
    <circle r="185" fill="#0D47A1" stroke="#1565C0" stroke-width="10"/>
    <circle r="158" fill="#1976D2" opacity="0.9"/>
    <!-- Paper Liner -->
    <rect x="-140" y="-140" width="280" height="280" rx="15" fill="#FFFDF8" transform="rotate(-8)" opacity="0.96"/>
    <!-- Taco Dorado with rich red sauce -->
    <ellipse cx="0" cy="15" rx="120" ry="52" fill="#E65100" stroke="#BF360C" stroke-width="4"/>
    <!-- Guajillo Salsa Coat -->
    <ellipse cx="0" cy="10" rx="100" ry="38" fill="#C62828"/>
    <!-- Cream drizzle -->
    <path d="M-70,5 Q-30,25 10,-5 Q50,20 80,0" stroke="#FFFFFF" stroke-width="8" fill="none" stroke-linecap="round"/>
    <!-- Pickled purple red onions -->
    <ellipse cx="-20" cy="5" rx="22" ry="12" fill="none" stroke="#AD1457" stroke-width="7"/>
    <ellipse cx="30" cy="12" rx="25" ry="10" fill="none" stroke="#C2185B" stroke-width="6"/>
    <!-- Fresh cilantro garnish -->
    <circle cx="-35" cy="0" r="8" fill="#2E7D32"/>
    <circle cx="5" cy="15" r="7" fill="#388E3C"/>
    <circle cx="50" cy="5" r="6" fill="#2E7D32"/>
    <!-- Queso fresco crumbles -->
    <circle cx="-10" cy="-8" r="4" fill="#FFFFFF"/>
    <circle cx="15" cy="22" r="3" fill="#FFFFFF"/>
    <circle cx="-45" cy="15" r="3.5" fill="#FFFFFF"/>
  </g>

  <!-- Right Plate: Fresh Seafood Ceviche Tostada -->
  <g transform="translate(860, 610)" filter="url(#shadow)">
    <!-- Blue Plate -->
    <circle r="180" fill="#0D47A1" stroke="#1565C0" stroke-width="10"/>
    <circle r="154" fill="#1976D2" opacity="0.9"/>
    <!-- Paper Liner -->
    <rect x="-135" y="-135" width="270" height="270" rx="15" fill="#FFFDF8" transform="rotate(18)" opacity="0.96"/>
    <!-- Crispy Tostada Base -->
    <circle r="95" fill="#F4B400" stroke="#D39E00" stroke-width="4"/>
    <!-- Fresh Ceviche Mix -->
    <circle r="80" fill="#FFFDE7" opacity="0.7"/>
    <!-- Diced Tomatoes & White Fish -->
    <rect x="-40" y="-30" width="18" height="18" rx="3" fill="#E53935"/>
    <rect x="15" y="-45" width="20" height="20" rx="3" fill="#E53935"/>
    <rect x="-15" y="10" width="22" height="22" rx="3" fill="#E53935"/>
    <rect x="35" y="5" width="16" height="16" rx="3" fill="#E53935"/>
    <!-- White Fish Cubes -->
    <rect x="-60" y="-10" width="24" height="24" rx="4" fill="#ECEFF1"/>
    <rect x="-10" y="-35" width="22" height="22" rx="4" fill="#F5F5F5"/>
    <rect x="10" y="-10" width="26" height="26" rx="4" fill="#ECEFF1"/>
    <rect x="-35" y="25" width="20" height="20" rx="4" fill="#FAFAFA"/>
    <!-- Cilantro Leaf Accents -->
    <circle cx="0" cy="0" r="8" fill="#2E7D32"/>
    <circle cx="-30" cy="-25" r="7" fill="#388E3C"/>
    <circle cx="35" cy="-20" r="7" fill="#2E7D32"/>
    <circle cx="15" cy="30" r="6" fill="#388E3C"/>
    <!-- Thin Avocado Slice Crown -->
    <path d="M-40,-5 Q0,-35 45,-15 Q10,-5 -40,-5 Z" fill="#689F38" stroke="#33691E" stroke-width="2"/>
    <path d="M-30,-2 Q0,-25 35,-10" stroke="#DCEDC8" stroke-width="4" fill="none"/>
  </g>

  <!-- Top-Right: Glass Bottle with Fresh Green Juice / Agua Verde -->
  <g transform="translate(1060, 180)" filter="url(#shadow)">
    <!-- Red Coaster -->
    <circle r="60" fill="#D32F2F" stroke="#B71C1C" stroke-width="4"/>
    <!-- Glass Bottle Bottom -->
    <circle r="44" fill="#2E7D32" stroke="#81C784" stroke-width="5" opacity="0.95"/>
    <!-- Green Juice Depth -->
    <circle r="36" fill="#388E3C"/>
    <!-- Bottle Reflection Highlight -->
    <path d="M-20,-20 A30,30 0 0,1 20,-20" stroke="#C8E6C9" stroke-width="5" fill="none" stroke-linecap="round" opacity="0.8"/>
  </g>

  <!-- Bottom-Right: Amber Beer Bottle -->
  <g transform="translate(1080, 780)" filter="url(#shadow)">
    <!-- Red Coaster -->
    <circle r="65" fill="#D32F2F" stroke="#B71C1C" stroke-width="4"/>
    <!-- Amber Bottle Base -->
    <circle r="48" fill="#4E342E" stroke="#8D6E63" stroke-width="6"/>
    <!-- Liquid Amber Tone -->
    <circle r="38" fill="#6D4C41"/>
    <!-- Condensation Drops -->
    <circle cx="-15" cy="-15" r="3" fill="#FFF" opacity="0.7"/>
    <circle cx="18" cy="-8" r="2.5" fill="#FFF" opacity="0.7"/>
    <circle cx="-10" cy="20" r="3.5" fill="#FFF" opacity="0.6"/>
    <path d="M-22,-22 A32,32 0 0,1 22,-22" stroke="#D7CCC8" stroke-width="4" fill="none" stroke-linecap="round" opacity="0.8"/>
  </g>

  <!-- Fork & Lime Wedge Accent -->
  <g transform="translate(100, 420)" filter="url(#shadow)" opacity="0.85">
    <rect x="-6" y="-120" width="12" height="240" rx="6" fill="#CFD8DC" stroke="#90A4AE" stroke-width="2"/>
    <path d="M-20,-120 L-20,-160 M-7,-120 L-7,-160 M7,-120 L7,-160 M20,-120 L20,-160" stroke="#90A4AE" stroke-width="4" stroke-linecap="round"/>
  </g>

  <!-- Editorial Watermark / Caption -->
  <rect x="40" y="40" width="340" height="52" rx="10" fill="#1B1B1B" opacity="0.85"/>
  <text x="60" y="73" font-family="'Hanken Grotesk', 'Arial', sans-serif" font-size="16" font-weight="bold" fill="#FFF" letter-spacing="2">MOVA • FOTOGRAFÍA GASTRONÓMICA</text>
</svg>